<mxfile host="app.diagrams.net" modified="2023-05-27T12:15:01.453Z" agent="Mozilla/5.0 (Windows NT 10.0; Win64; x64) AppleWebKit/537.36 (KHTML, like Gecko) Chrome/113.0.0.0 Safari/537.36" etag="AZWo-a-KKQIvmC0szZt1" version="21.3.2" type="github">
  <diagram name="Σελίδα-1" id="9jjIvGcrPunl4pUG9XgE">
    <mxGraphModel dx="1707" dy="1691" grid="1" gridSize="10" guides="1" tooltips="1" connect="1" arrows="1" fold="1" page="1" pageScale="1" pageWidth="827" pageHeight="1169" math="0" shadow="0">
      <root>
        <mxCell id="0" />
        <mxCell id="1" parent="0" />
        <mxCell id="vPbflDGvp13sBScF6JYu-1" value="&lt;font color=&quot;#ffffff&quot;&gt;πελάτης&lt;/font&gt;" style="shape=umlActor;verticalLabelPosition=bottom;verticalAlign=top;html=1;outlineConnect=0;fillColor=#f5f5f5;fontColor=#333333;strokeColor=#666666;" parent="1" vertex="1">
          <mxGeometry x="50" y="140" width="40" height="70" as="geometry" />
        </mxCell>
        <mxCell id="vPbflDGvp13sBScF6JYu-3" value="manager" style="shape=actor;whiteSpace=wrap;html=1;fillColor=#1ba1e2;fontColor=#ffffff;strokeColor=#006EAF;" parent="1" vertex="1">
          <mxGeometry x="330" y="220" width="40" height="60" as="geometry" />
        </mxCell>
        <mxCell id="vPbflDGvp13sBScF6JYu-4" value="διανομέας" style="shape=umlActor;verticalLabelPosition=bottom;verticalAlign=top;html=1;fillColor=#e6d0de;gradientColor=#d5739d;strokeColor=#996185;" parent="1" vertex="1">
          <mxGeometry x="590" y="310" width="50" height="70" as="geometry" />
        </mxCell>
        <mxCell id="vPbflDGvp13sBScF6JYu-5" value="techsupport" style="shape=actor;whiteSpace=wrap;html=1;fillColor=#d80073;fontColor=#ffffff;strokeColor=#A50040;" parent="1" vertex="1">
          <mxGeometry x="610" y="110" width="40" height="60" as="geometry" />
        </mxCell>
        <mxCell id="vPbflDGvp13sBScF6JYu-6" value="υπαλληλος" style="shape=umlActor;verticalLabelPosition=bottom;verticalAlign=top;html=1;fillColor=#60a917;fontColor=#ffffff;strokeColor=#2D7600;" parent="1" vertex="1">
          <mxGeometry x="160" y="370" width="40" height="80" as="geometry" />
        </mxCell>
        <mxCell id="vPbflDGvp13sBScF6JYu-8" value="marketing team" style="shape=umlActor;verticalLabelPosition=bottom;verticalAlign=top;html=1;fillColor=#ffcd28;gradientColor=#ffa500;strokeColor=#d79b00;" parent="1" vertex="1">
          <mxGeometry x="310" y="50" width="40" height="70" as="geometry" />
        </mxCell>
        <mxCell id="vPbflDGvp13sBScF6JYu-9" value="θέλω να ξέρω πληροφορίες για τα προιόντα&amp;nbsp;" style="ellipse;shape=cloud;whiteSpace=wrap;html=1;fillColor=#dae8fc;strokeColor=#6c8ebf;gradientColor=#7ea6e0;fontColor=#0A0A0A;" parent="1" vertex="1">
          <mxGeometry x="50" y="30" width="120" height="100" as="geometry" />
        </mxCell>
        <mxCell id="vPbflDGvp13sBScF6JYu-10" value="καλύτερη προβολή των προιόντων μας" style="ellipse;shape=cloud;whiteSpace=wrap;html=1;fillColor=#dae8fc;gradientColor=#7ea6e0;strokeColor=#6c8ebf;fontColor=#000000;" parent="1" vertex="1">
          <mxGeometry x="380" y="210" width="150" height="80" as="geometry" />
        </mxCell>
        <mxCell id="vPbflDGvp13sBScF6JYu-11" value="καλύτερη εικόνα του καταστήματος&amp;nbsp;" style="ellipse;shape=cloud;whiteSpace=wrap;html=1;align=center;fillColor=#dae8fc;gradientColor=#7ea6e0;strokeColor=#6c8ebf;fontColor=#080808;" parent="1" vertex="1">
          <mxGeometry x="235" y="280" width="135" height="90" as="geometry" />
        </mxCell>
        <mxCell id="vPbflDGvp13sBScF6JYu-15" value="θέλω να μου στείλουν το προιόν σπίτι μου" style="ellipse;shape=cloud;whiteSpace=wrap;html=1;align=center;fillColor=#dae8fc;strokeColor=#6c8ebf;gradientColor=#7ea6e0;fontColor=#000000;" parent="1" vertex="1">
          <mxGeometry x="90" y="120" width="130" height="90" as="geometry" />
        </mxCell>
        <mxCell id="vPbflDGvp13sBScF6JYu-16" value="θέλω να αξιολογήσω το προιόν" style="ellipse;shape=cloud;whiteSpace=wrap;html=1;align=center;fillColor=#dae8fc;strokeColor=#6c8ebf;gradientColor=#7ea6e0;fontColor=#000000;" parent="1" vertex="1">
          <mxGeometry x="-60" y="70" width="110" height="80" as="geometry" />
        </mxCell>
        <mxCell id="vPbflDGvp13sBScF6JYu-17" value="δεν έχω χρόνο να πάω στο κατάστημα&amp;nbsp;" style="ellipse;shape=cloud;whiteSpace=wrap;html=1;align=center;fillColor=#dae8fc;strokeColor=#6c8ebf;gradientColor=#7ea6e0;fontColor=#000000;" parent="1" vertex="1">
          <mxGeometry x="-70" y="140" width="120" height="80" as="geometry" />
        </mxCell>
        <mxCell id="vPbflDGvp13sBScF6JYu-18" value="δυσκολεύομαι να βρω το κατάλληλο προιόν" style="ellipse;shape=cloud;whiteSpace=wrap;html=1;align=center;fillColor=#dae8fc;strokeColor=#6c8ebf;gradientColor=#7ea6e0;fontColor=#000000;" parent="1" vertex="1">
          <mxGeometry x="60" y="200" width="170" height="100" as="geometry" />
        </mxCell>
        <mxCell id="vPbflDGvp13sBScF6JYu-19" value="θέλω βοήθεια με την αγκατάστςση" style="ellipse;shape=cloud;whiteSpace=wrap;html=1;align=center;fillColor=#dae8fc;strokeColor=#6c8ebf;gradientColor=#7ea6e0;fontColor=#000000;" parent="1" vertex="1">
          <mxGeometry x="-65" y="230" width="120" height="80" as="geometry" />
        </mxCell>
        <mxCell id="vPbflDGvp13sBScF6JYu-21" value="θέλω περισσότερες πληροφορίες για το προιόν και τον παραλήπτη" style="ellipse;shape=cloud;whiteSpace=wrap;html=1;fillColor=#dae8fc;gradientColor=#7ea6e0;strokeColor=#6c8ebf;fontColor=#000000;" parent="1" vertex="1">
          <mxGeometry x="650" y="280" width="140" height="130" as="geometry" />
        </mxCell>
        <mxCell id="vPbflDGvp13sBScF6JYu-22" value="δυσκολεύομαι να βρω τα σπίτια των παραλήπτων" style="ellipse;shape=cloud;whiteSpace=wrap;html=1;fillColor=#dae8fc;gradientColor=#7ea6e0;strokeColor=#6c8ebf;fontColor=#000000;" parent="1" vertex="1">
          <mxGeometry x="470" y="380" width="130" height="110" as="geometry" />
        </mxCell>
        <mxCell id="vPbflDGvp13sBScF6JYu-23" value="αργώ να εξυπηρετήσω όλους τους πελάτες&amp;nbsp;" style="ellipse;shape=cloud;whiteSpace=wrap;html=1;fillColor=#dae8fc;gradientColor=#7ea6e0;strokeColor=#6c8ebf;fontColor=#0D0D0D;" parent="1" vertex="1">
          <mxGeometry x="210" y="410" width="140" height="100" as="geometry" />
        </mxCell>
        <mxCell id="vPbflDGvp13sBScF6JYu-24" value="μου ζητάνε τεχνικές λεπτομέριες που δεν γνωρίζω" style="ellipse;shape=cloud;whiteSpace=wrap;html=1;fillColor=#dae8fc;gradientColor=#7ea6e0;strokeColor=#6c8ebf;fontColor=#000000;" parent="1" vertex="1">
          <mxGeometry x="20" y="390" width="135" height="100" as="geometry" />
        </mxCell>
        <mxCell id="vPbflDGvp13sBScF6JYu-25" value="θέλω να προτείνω στους πελάτες προιόντα" style="ellipse;shape=cloud;whiteSpace=wrap;html=1;fillColor=#dae8fc;gradientColor=#7ea6e0;strokeColor=#6c8ebf;fontColor=#000000;" parent="1" vertex="1">
          <mxGeometry x="85" y="490" width="135" height="110" as="geometry" />
        </mxCell>
        <mxCell id="vPbflDGvp13sBScF6JYu-26" value="είναι δύσκολο να καταγράψουμε την δημοφιλία των προιόντων" style="ellipse;shape=cloud;whiteSpace=wrap;html=1;fillColor=#dae8fc;gradientColor=#7ea6e0;strokeColor=#6c8ebf;fontColor=#0D0D0D;" parent="1" vertex="1">
          <mxGeometry x="377" y="50" width="146" height="100" as="geometry" />
        </mxCell>
        <mxCell id="vPbflDGvp13sBScF6JYu-27" value="θέλουμε να κάνουμε εξατομικευμένες προτάσεις αγοράς&amp;nbsp;" style="ellipse;shape=cloud;whiteSpace=wrap;html=1;fillColor=#dae8fc;gradientColor=#7ea6e0;strokeColor=#6c8ebf;fontColor=#0D0D0D;" parent="1" vertex="1">
          <mxGeometry x="190" y="-15" width="140" height="90" as="geometry" />
        </mxCell>
        <mxCell id="vPbflDGvp13sBScF6JYu-29" value="θέλουμε να ξέρουμε την άποψη του κόσμου για τα προιόντα" style="whiteSpace=wrap;html=1;shape=mxgraph.basic.cloud_callout;fillColor=#dae8fc;gradientColor=#7ea6e0;strokeColor=#6c8ebf;fontColor=#0F0F0F;" parent="1" vertex="1">
          <mxGeometry x="360" y="-45" width="150" height="120" as="geometry" />
        </mxCell>
        <mxCell id="vPbflDGvp13sBScF6JYu-32" value="" style="verticalLabelPosition=bottom;verticalAlign=top;html=1;shape=mxgraph.basic.flash;fillColor=#ffcd28;gradientColor=#ffa500;strokeColor=#d79b00;" parent="1" vertex="1">
          <mxGeometry x="55" y="330" width="30" height="50" as="geometry" />
        </mxCell>
        <mxCell id="ivp22cxwNibPHCmtNEcD-4" value="θέλω να με βρίσκουν οι πελάτες εύκολα&amp;nbsp;" style="whiteSpace=wrap;html=1;shape=mxgraph.basic.cloud_callout;fillColor=#dae8fc;gradientColor=#7ea6e0;strokeColor=#6c8ebf;fontColor=#141414;" vertex="1" parent="1">
          <mxGeometry x="672.5" y="45" width="95" height="80" as="geometry" />
        </mxCell>
        <mxCell id="ivp22cxwNibPHCmtNEcD-5" value="θέλω να μπορώ να δώσω συμβουλές από απόσταση" style="ellipse;shape=cloud;whiteSpace=wrap;html=1;fillColor=#dae8fc;gradientColor=#7ea6e0;strokeColor=#6c8ebf;fontColor=#000000;" vertex="1" parent="1">
          <mxGeometry x="545" y="20" width="120" height="80" as="geometry" />
        </mxCell>
        <mxCell id="ivp22cxwNibPHCmtNEcD-6" value="κοινωνία" style="verticalLabelPosition=bottom;verticalAlign=top;html=1;shape=mxgraph.basic.frame_corner;dx=10;whiteSpace=wrap;fillColor=#f5f5f5;gradientColor=#b3b3b3;strokeColor=#666666;direction=east;" vertex="1" parent="1">
          <mxGeometry x="360" y="620" width="55" height="30" as="geometry" />
        </mxCell>
        <mxCell id="ivp22cxwNibPHCmtNEcD-8" value="ανταγωνίστριες εταιρίες" style="verticalLabelPosition=bottom;verticalAlign=top;html=1;shape=mxgraph.basic.frame_corner;dx=10;whiteSpace=wrap;fillColor=#f5f5f5;gradientColor=#b3b3b3;strokeColor=#666666;" vertex="1" parent="1">
          <mxGeometry x="460" y="620" width="50" height="40" as="geometry" />
        </mxCell>
        <mxCell id="ivp22cxwNibPHCmtNEcD-11" value="πρακτορεία μεταφορών&amp;nbsp;" style="verticalLabelPosition=bottom;verticalAlign=top;html=1;shape=mxgraph.basic.frame_corner;dx=10;whiteSpace=wrap;fillColor=#f5f5f5;gradientColor=#b3b3b3;strokeColor=#666666;" vertex="1" parent="1">
          <mxGeometry x="542" y="620" width="65" height="40" as="geometry" />
        </mxCell>
      </root>
    </mxGraphModel>
  </diagram>
</mxfile>
